<svg xmlns="http://www.w3.org/2000/svg" xmlns:xlink="http://www.w3.org/1999/xlink" version="1.1" x="0px" y="0px" viewBox="0 0 27 33.75" style="enable-background:new 0 0 27 27;" xml:space="preserve"><g><path d="M11.9800415,7.7949219h11.1699219c0.2800293,0,0.5-0.2300415,0.5-0.5V4.4349365   c0-1.460022-1.1899414-2.6600342-2.6599121-2.6600342H6.210022c-1.5800781,0-2.8599854,1.289978-2.8599854,2.8599854v12.9299927   c0,1.5700073,1.2799072,2.8500366,2.8599854,2.8500366h7.9299316v2.8101807h-0.6591797c-0.5527344,0-1,0.4477539-1,1   s0.4472656,1,1,1h7.3125c0.5527344,0,1-0.4477539,1-1s-0.4472656-1-1-1h-0.6533203V20.414917h0.8500977   c1.4699707,0,2.6599121-1.1900024,2.6599121-2.6500244V14.914917c0-0.2800293-0.2199707-0.5-0.5-0.5h-3.0100098v-2.3148193   h0.3095703c0.5527344,0,1-0.4477539,1-1s-0.4472656-1-1-1h-6.625c-0.5527344,0-1,0.4477539-1,1s0.4472656,1,1,1h0.3154297   v2.3148193h-2.1599121c-1.0300293,0-1.8599854-0.8400269-1.8599854-1.8699951V9.6448975   C10.1200562,8.6248779,10.9500122,7.7949219,11.9800415,7.7949219z"/></g><text x="0" y="42" fill="#000000" font-size="5px" font-weight="bold" font-family="'Helvetica Neue', Helvetica, Arial-Unicode, Arial, Sans-serif">Created by Brickclay</text><text x="0" y="47" fill="#000000" font-size="5px" font-weight="bold" font-family="'Helvetica Neue', Helvetica, Arial-Unicode, Arial, Sans-serif">from the Noun Project</text></svg>